HIERARCHY
ROOT Hips
{
    OFFSET   0.000000   0.000000   0.000000
    CHANNELS 6 Xposition Yposition Zposition Zrotation Xrotation Yrotation
    JOINT Chest
    {
        OFFSET   0.000000   8.007240   0.000000
        CHANNELS 3 Zrotation Xrotation Yrotation
        JOINT Chest2
        {
            OFFSET   0.000000  22.077100   0.000000
            CHANNELS 3 Zrotation Xrotation Yrotation
            JOINT Neck
            {
                OFFSET   0.000000  23.254800   0.000000
                CHANNELS 3 Zrotation Xrotation Yrotation
                JOINT Head
                {
                    OFFSET   0.000000  14.370000   1.956600
                    CHANNELS 3 Zrotation Xrotation Yrotation
                    End Site
                    {
                        OFFSET   0.000000  19.566000   0.000000
                    }
                }
            }
            JOINT LeftCollar
            {
                OFFSET   3.911900  19.017000  -0.467064
                CHANNELS 3 Zrotation Xrotation Yrotation
                JOINT LeftShoulder
                {
                    OFFSET  10.383700   0.000000   0.000000
                    CHANNELS 3 Zrotation Xrotation Yrotation
                    JOINT LeftElbow
                    {
                        OFFSET  26.662100   0.001476   0.000517
                        CHANNELS 3 Zrotation Xrotation Yrotation
                        JOINT LeftWrist
                        {
                            OFFSET  28.869000  -0.000025  -0.000106
                            CHANNELS 3 Zrotation Xrotation Yrotation
                            JOINT LeftFinger0
                            {
                                OFFSET   2.044660  -2.323460   3.252850
                                CHANNELS 3 Zrotation Xrotation Yrotation
                                JOINT LeftFinger01
                                {
                                    OFFSET   3.088130   0.000000   0.000000
                                    CHANNELS 3 Zrotation Xrotation Yrotation
                                    JOINT LeftFinger02
                                    {
                                        OFFSET   2.639460   0.000000   0.000000
                                        CHANNELS 3 Zrotation Xrotation Yrotation
                                        End Site
                                        {
                                            OFFSET   2.582190   0.000000   0.000000
                                        }
                                    }
                                }
                            }
                            JOINT LeftFinger1
                            {
                                OFFSET   8.364480   0.000000   3.252850
                                CHANNELS 3 Zrotation Xrotation Yrotation
                                JOINT LeftFinger11
                                {
                                    OFFSET   4.646930   0.000000   0.000000
                                    CHANNELS 3 Zrotation Xrotation Yrotation
                                    JOINT LeftFinger12
                                    {
                                        OFFSET   2.323460   0.000000   0.000000
                                        CHANNELS 3 Zrotation Xrotation Yrotation
                                        End Site
                                        {
                                            OFFSET   2.273050   0.000000   0.000000
                                        }
                                    }
                                }
                            }
                            JOINT LeftFinger2
                            {
                                OFFSET   8.364490   0.000015   1.078090
                                CHANNELS 3 Zrotation Xrotation Yrotation
                                JOINT LeftFinger21
                                {
                                    OFFSET   5.111620   0.000000   0.000000
                                    CHANNELS 3 Zrotation Xrotation Yrotation
                                    JOINT LeftFinger22
                                    {
                                        OFFSET   2.788160   0.000016   0.000000
                                        CHANNELS 3 Zrotation Xrotation Yrotation
                                        End Site
                                        {
                                            OFFSET   2.727660   0.000000   0.000000
                                        }
                                    }
                                }
                            }
                            JOINT LeftFinger3
                            {
                                OFFSET   7.899780   0.000017  -1.078090
                                CHANNELS 3 Zrotation Xrotation Yrotation
                                JOINT LeftFinger31
                                {
                                    OFFSET   4.646930   0.000000   0.000000
                                    CHANNELS 3 Zrotation Xrotation Yrotation
                                    JOINT LeftFinger32
                                    {
                                        OFFSET   2.323470   0.000000   0.000000
                                        CHANNELS 3 Zrotation Xrotation Yrotation
                                        End Site
                                        {
                                            OFFSET   2.273050   0.000000   0.000000
                                        }
                                    }
                                }
                            }
                            JOINT LeftFinger4
                            {
                                OFFSET   7.435090   0.000000  -3.252850
                                CHANNELS 3 Zrotation Xrotation Yrotation
                                JOINT LeftFinger41
                                {
                                    OFFSET   3.717550   0.000000   0.000000
                                    CHANNELS 3 Zrotation Xrotation Yrotation
                                    JOINT LeftFinger42
                                    {
                                        OFFSET   1.858770   0.000000   0.000000
                                        CHANNELS 3 Zrotation Xrotation Yrotation
                                        End Site
                                        {
                                            OFFSET   1.818440   0.000000   0.000000
                                        }
                                    }
                                }
                            }
                        }
                    }
                }
            }
            JOINT RightCollar
            {
                OFFSET  -3.911900  19.017000  -0.467063
                CHANNELS 3 Zrotation Xrotation Yrotation
                JOINT RightShoulder
                {
                    OFFSET -10.383700   0.000019   0.000000
                    CHANNELS 3 Zrotation Xrotation Yrotation
                    JOINT RightElbow
                    {
                        OFFSET -26.662100   0.001175   0.000102
                        CHANNELS 3 Zrotation Xrotation Yrotation
                        JOINT RightWrist
                        {
                            OFFSET -28.869000   0.000016  -0.000079
                            CHANNELS 3 Zrotation Xrotation Yrotation
                            JOINT RightFinger0
                            {
                                OFFSET  -2.044660  -2.323490   3.252850
                                CHANNELS 3 Zrotation Xrotation Yrotation
                                JOINT RightFinger01
                                {
                                    OFFSET  -3.088140   0.000000   0.000000
                                    CHANNELS 3 Zrotation Xrotation Yrotation
                                    JOINT RightFinger02
                                    {
                                        OFFSET  -2.639460   0.000000   0.000000
                                        CHANNELS 3 Zrotation Xrotation Yrotation
                                        End Site
                                        {
                                            OFFSET  -2.582190   0.000000   0.000000
                                        }
                                    }
                                }
                            }
                            JOINT RightFinger1
                            {
                                OFFSET  -8.364480   0.000000   3.252850
                                CHANNELS 3 Zrotation Xrotation Yrotation
                                JOINT RightFinger11
                                {
                                    OFFSET  -4.646930   0.000000   0.000000
                                    CHANNELS 3 Zrotation Xrotation Yrotation
                                    JOINT RightFinger12
                                    {
                                        OFFSET  -2.323470   0.000000   0.000000
                                        CHANNELS 3 Zrotation Xrotation Yrotation
                                        End Site
                                        {
                                            OFFSET  -2.273050   0.000000   0.000000
                                        }
                                    }
                                }
                            }
                            JOINT RightFinger2
                            {
                                OFFSET  -8.364480   0.000000   1.078090
                                CHANNELS 3 Zrotation Xrotation Yrotation
                                JOINT RightFinger21
                                {
                                    OFFSET  -5.111620   0.000000   0.000000
                                    CHANNELS 3 Zrotation Xrotation Yrotation
                                    JOINT RightFinger22
                                    {
                                        OFFSET  -2.788160   0.000000   0.000000
                                        CHANNELS 3 Zrotation Xrotation Yrotation
                                        End Site
                                        {
                                            OFFSET  -2.727660   0.000000   0.000000
                                        }
                                    }
                                }
                            }
                            JOINT RightFinger3
                            {
                                OFFSET  -7.899780   0.000000  -1.078090
                                CHANNELS 3 Zrotation Xrotation Yrotation
                                JOINT RightFinger31
                                {
                                    OFFSET  -4.646930   0.000000   0.000000
                                    CHANNELS 3 Zrotation Xrotation Yrotation
                                    JOINT RightFinger32
                                    {
                                        OFFSET  -2.323470   0.000000   0.000000
                                        CHANNELS 3 Zrotation Xrotation Yrotation
                                        End Site
                                        {
                                            OFFSET  -2.273050   0.000000   0.000000
                                        }
                                    }
                                }
                            }
                            JOINT RightFinger4
                            {
                                OFFSET  -7.435090   0.000000  -3.252850
                                CHANNELS 3 Zrotation Xrotation Yrotation
                                JOINT RightFinger41
                                {
                                    OFFSET  -3.717550   0.000000   0.000000
                                    CHANNELS 3 Zrotation Xrotation Yrotation
                                    JOINT RightFinger42
                                    {
                                        OFFSET  -1.858770   0.000000   0.000000
                                        CHANNELS 3 Zrotation Xrotation Yrotation
                                        End Site
                                        {
                                            OFFSET  -1.818440   0.000000   0.000000
                                        }
                                    }
                                }
                            }
                        }
                    }
                }
            }
        }
    }
    JOINT LeftHip
    {
        OFFSET   9.783040   0.000000   0.000000
        CHANNELS 3 Zrotation Xrotation Yrotation
        JOINT LeftKnee
        {
            OFFSET   0.000032 -41.789100  -0.002222
            CHANNELS 3 Zrotation Xrotation Yrotation
            JOINT LeftAnkle
            {
                OFFSET   0.000087 -41.133200  -0.000135
                CHANNELS 3 Zrotation Xrotation Yrotation
                JOINT LeftToe
                {
                    OFFSET   0.000000  -6.358960  14.674500
                    CHANNELS 3 Zrotation Xrotation Yrotation
                    End Site
                    {
                        OFFSET   0.000000   0.000000   3.913200
                    }
                }
            }
        }
    }
    JOINT RightHip
    {
        OFFSET  -9.783040   0.000000   0.000000
        CHANNELS 3 Zrotation Xrotation Yrotation
        JOINT RightKnee
        {
            OFFSET   0.000047 -41.789100  -0.000896
            CHANNELS 3 Zrotation Xrotation Yrotation
            JOINT RightAnkle
            {
                OFFSET  -0.000117 -41.133300  -0.000248
                CHANNELS 3 Zrotation Xrotation Yrotation
                JOINT RightToe
                {
                    OFFSET   0.000000  -6.358970  14.674500
                    CHANNELS 3 Zrotation Xrotation Yrotation
                    End Site
                    {
                        OFFSET   0.000000   0.000000   3.913200
                    }
                }
            }
        }
    }
}
MOTION
Frames: 5
Frame Time:   0.016667
  1.277300  89.448700   2.160640  -2.614500  -9.032270   0.845361   1.123430   5.855130  -1.062960   2.375230  11.687000  -2.259610  -3.178500  -0.074923   0.001109  -5.221800  -0.150727  11.078100 -10.216800   2.214040  -1.663400 -59.227700  29.379600 -54.484900 -14.538300   4.124860 -112.655000 -38.296400 -19.007300 -20.236700  31.470400  16.813200 -64.745000 -24.436100   0.000392   0.000156  -7.218070  -0.000633  -0.003388 -52.277100  10.243300  -7.820180 -43.353400   0.007784   0.003865 -32.515000   0.006729   0.004977 -55.733200   2.282010  -1.536530 -55.806300   0.003946   0.005583 -41.847600  -0.003100   0.007114 -53.863200  -5.833750   4.263570 -54.278000   0.003040   0.003000 -40.667300   0.003985   0.007611 -59.421400  -8.526320   5.019500 -89.683800  -0.002103   0.025899 -59.729400  -0.015713   0.007316   8.111100  -2.572790  12.206200  71.666600  17.679100   0.525294  -1.414580  -1.015790  13.698500 -16.553700 -11.746400  -2.508540 -38.242700  38.675600  76.307100  33.894300   0.013252  -0.022701  11.947200   0.014190  -0.015105  47.283900   8.829340   8.066160  39.197200  -0.008555  -0.002306  29.082700  -0.011616  -0.000522  35.451000   2.297040   3.221890  53.273400  -0.012406   0.001740  35.480100  -0.008929   0.005674  37.845600   2.429690   3.123110  54.177400  -0.013547   0.001206  36.617700  -0.013645   0.002736  48.580400  -3.973670  -3.498500  73.052700  -0.012053   0.022408  48.653100  -0.002571   0.020196   2.975460  12.421300   3.804450  -0.280110   0.927232  11.436800  -2.007760  -3.818230   5.145810   0.000000   0.000000   0.000000   0.972941   8.390170  -6.693570   0.810474   5.212890  -8.743720  -2.385220  -4.315650   1.167140   0.000000   0.000000   0.000000
  1.278030  89.448600   2.169860  -2.612280  -9.020990   0.853113   1.132440   5.855960  -1.065560   2.393630  11.688400  -2.265610  -3.175620  -0.074504   0.001282  -5.217310  -0.149889  11.073000 -10.223100   2.216090  -1.678730 -58.969900  29.453000 -54.703500 -14.990400   4.646210 -113.122000 -39.271100 -20.392200 -21.199500  31.594500  17.427200 -65.154300 -24.428600   0.000365   0.000117  -7.214340  -0.000638  -0.003535 -51.947800   9.981030  -7.723100 -43.060700   0.003538   0.004302 -32.295500   0.006549   0.002086 -55.213900   2.321010  -1.644820 -55.074000   0.002839   0.005154 -41.343700  -0.003522   0.006827 -52.444600  -6.063170   4.709680 -54.243400   0.003001   0.003382 -40.375000   0.003889   0.007598 -58.713900  -8.218480   4.960240 -88.598900  -0.000388   0.013707 -59.006900  -0.008207   0.007090   8.113180  -2.579090  12.196800  71.645000  17.690300   0.514667  -1.407170  -1.041820  13.687200 -16.518100 -11.746500  -2.484230 -38.234700  38.684300  76.332700  33.892400   0.019798  -0.020452  11.946300   0.015430  -0.016763  47.290600   8.816510   8.051200  39.202000  -0.013448  -0.002208  29.087400  -0.014592  -0.000660  35.451800   2.306270   3.234620  53.276500  -0.016964   0.001659  35.480800  -0.008927   0.005654  37.865000   2.440070   3.134950  54.177700  -0.018334   0.001117  36.624200  -0.015447   0.002681  48.596100  -3.979640  -3.501810  73.076700  -0.019279   0.022983  48.669100  -0.007182   0.022429   2.972930  12.441600   3.804760  -0.285935   0.867267  11.436700  -2.003040  -3.789730   5.141550   0.000000   0.000000  -0.000000   0.950203   8.381330  -6.677880   0.831432   5.212670  -8.760830  -2.380860  -4.316670   1.163820  -0.000000   0.000000   0.000000
  1.280510  89.448400   2.177900  -2.609170  -9.010930   0.867359   1.141220   5.856780  -1.069740   2.411830  11.689900  -2.275170  -3.175200  -0.071571   0.001455  -5.216890  -0.144008  11.057900 -10.229100   2.219280  -1.701120 -58.671600  29.528400 -54.950300 -15.442300   5.213210 -113.654000 -39.991400 -21.577700 -21.875500  31.723600  18.016000 -65.569300 -24.376500   0.000342   0.000087  -7.188240  -0.000640  -0.003678 -51.458800   9.530980  -7.524410 -42.619900  -0.000708   0.004364 -31.964900   0.006352  -0.000805 -54.715300   2.326580  -1.660290 -54.404700   0.002019   0.005018 -40.876800  -0.004066   0.006787 -50.719600  -6.291930   5.156250 -54.208800   0.002923   0.003499 -39.960900   0.003796   0.007569 -57.743300  -7.796650   4.894750 -87.115000   0.000136   0.001515 -58.018600  -0.000686   0.006728   8.114910  -2.588210  12.184800  71.621400  17.706300   0.505199  -1.399800  -1.069980  13.684400 -16.464700 -11.745700  -2.460250 -38.246300  38.692200  76.356000  33.879400   0.028933  -0.019428  11.939700   0.016350  -0.017718  47.294500   8.803590   8.040110  39.202700  -0.019516  -0.002111  29.088100  -0.017097  -0.000799  35.452700   2.328800   3.265950  53.280900  -0.023794   0.001576  35.482400  -0.008914   0.005633  37.867300   2.464260   3.165020  54.178000  -0.025653   0.001024  36.625500  -0.016341   0.002625  48.602400  -3.982020  -3.503130  73.086300  -0.029661   0.023235  48.675400  -0.013817   0.023747   2.970490  12.461900   3.805130  -0.289865   0.807303  11.436500  -1.998440  -3.761250   5.135370  -0.000000   0.000000   0.000000   0.928460   8.376280  -6.661290   0.852879   5.212430  -8.778410  -2.376820  -4.318650   1.156540  -0.000000   0.000000   0.000000
  1.285480  89.448200   2.185020  -2.606010  -9.000310   0.882064   1.147910   5.855590  -1.073450   2.425710  11.687300  -2.283380  -3.177670  -0.055540   0.001650  -5.219860  -0.112045  11.028700 -10.216000   2.231880  -1.732410 -58.319600  29.618000 -55.252500 -15.846000   5.746790 -114.210000 -40.604000 -22.725400 -22.464000  31.819000  18.496100 -65.875500 -23.759200   0.000314   0.000074  -6.879600  -0.000636  -0.003806 -51.220800   9.129840  -7.266090 -42.385500  -0.000206   0.004217 -31.789100   0.006142  -0.000626 -54.250700   2.100250  -1.507030 -54.060600   0.001370   0.004757 -40.605900  -0.004710   0.006880 -49.868200  -5.740010   4.781620 -54.260900   0.002831   0.003690 -39.785900   0.003709   0.007531 -57.410100  -7.649590   4.865870 -86.603800   0.000224   0.001942 -57.678200  -0.000669   0.006481   8.115580  -2.593430  12.166600  71.599800  17.725600   0.494062  -1.393670  -1.098680  13.691900 -16.424700 -11.723400  -2.443600 -38.306200  38.716200  76.373300  33.839400   0.036446  -0.023242  11.919600   0.016622  -0.017504  47.261000   8.803980   8.048750  39.175500  -0.024861  -0.002021  29.061400  -0.018461  -0.000932  35.451400   2.369990   3.324260  53.281900  -0.028321   0.001492  35.484100  -0.008840   0.005622  37.838200   2.506510   3.222710  54.178200  -0.030986   0.000927  36.616800  -0.015746   0.002569  48.585300  -3.975520  -3.499260  73.060300  -0.037564   0.022882  48.658000  -0.017346   0.023589   2.970400  12.437900   3.807930  -0.289751   0.844762  11.430200  -2.003120  -3.781140   5.126780   0.000000   0.000000   0.000000   0.912396   8.373780  -6.649870   0.869148   5.209110  -8.791820  -2.374790  -4.320780   1.147030   0.000000   0.000000   0.000000
  1.291270  89.448100   2.191580  -2.602650  -8.989640   0.897182   1.152680   5.851820  -1.075580   2.435390  11.679500  -2.287990  -3.182320  -0.028138   0.001847  -5.226970  -0.057189  10.997500 -10.194400   2.248570  -1.768470 -57.928200  29.722800 -55.588300 -16.155000   6.200290 -114.747000 -40.908900 -23.584200 -22.784600  31.903900  18.942900 -66.142900 -22.810400   0.000298   0.000071  -6.405210  -0.000631  -0.003930 -51.000500   8.741050  -7.006240 -42.167900   0.000759   0.003884 -31.625900   0.005921  -0.000250 -53.854600   1.624460  -1.177110 -53.948700   0.000919   0.004539 -40.445100  -0.005423   0.007067 -49.393600  -4.774890   4.085330 -54.320900   0.002722   0.003862 -39.692300   0.003625   0.007480 -57.337600  -7.616300   4.857200 -86.491700   0.000250   0.002776 -57.603500  -0.000666   0.006240   8.115440  -2.595860  12.146000  71.587600  17.740500   0.486795  -1.393360  -1.114960  13.703200 -16.395000 -11.702000  -2.435980 -38.360100  38.741900  76.377800  33.797300   0.040547  -0.027056  11.898600   0.016661  -0.016003  47.226100   8.807740   8.062920  39.148400  -0.028908  -0.001933  29.034700  -0.018933  -0.001064  35.452000   2.403500   3.370680  53.284100  -0.030577   0.001408  35.487200  -0.008706   0.005590  37.809400   2.540150   3.268980  54.178400  -0.033789   0.000829  36.607800  -0.014415   0.002509  48.560700  -3.966160  -3.493850  73.022700  -0.041754   0.020942  48.633000  -0.018842   0.022484   2.970350  12.405500   3.811980  -0.289086   0.882230  11.421300  -2.008060  -3.801030   5.116850   0.000000   0.000000   0.000000   0.904001   8.371290  -6.640500   0.877368   5.205820  -8.802650  -2.373910  -4.323330   1.135500   0.000000   0.000000  -0.000000
